<svg width="71" height="68" viewBox="0 0 71 68" fill="none" xmlns="http://www.w3.org/2000/svg">
<rect width="71" height="68" rx="34" fill="white"/>
<path d="M58.9502 44.3359V44.9395C58.9502 45.6012 58.6875 46.2422 58.2148 46.7148L47.7148 57.2148C47.2422 57.6874 46.6013 57.9502 45.9287 57.9502H45.3359V44.3359H58.9502ZM13.5713 10.0498H56.4287C57.826 10.0499 58.9501 11.174 58.9502 12.5713V40.8076H44.4287C42.9868 40.8076 41.8076 41.9868 41.8076 43.4287V57.9502H13.5713C12.174 57.9501 11.0499 56.826 11.0498 55.4287V12.5713C11.0499 11.174 12.174 10.0499 13.5713 10.0498Z" fill="#BD8E00" stroke="#030303" stroke-width="0.1"/>
<path d="M22.4143 38.2692V15.5C22.4143 14.6716 21.7428 14 20.9143 14H16.6666C15.8407 14 15.1702 14.6676 15.1666 15.4935L15.0065 52.4935C15.0029 53.3245 15.6755 54 16.5065 54H20.9143C21.7428 54 22.4143 53.3284 22.4143 52.5V47.078C22.4143 46.706 22.5526 46.3473 22.8022 46.0714L23.4355 45.3719C24.0752 44.6651 25.2034 44.7266 25.7625 45.4987L31.4693 53.3798C31.7515 53.7693 32.2033 54 32.6843 54H37.5253C38.7599 54 39.4659 52.5917 38.7271 51.6025L32.3511 43.0642C31.6124 42.0749 32.3183 40.6667 33.553 40.6667H34.4917C35.3201 40.6667 35.9917 39.9951 35.9917 39.1667V23.8852C35.9917 23.7185 36.1268 23.5833 36.2936 23.5833C36.3885 23.5833 36.4778 23.6279 36.5348 23.7038L48.2139 39.2348C48.4972 39.6117 48.9412 39.8333 49.4127 39.8333H53.5C54.3284 39.8333 55 39.1618 55 38.3333V15.5C55 14.6716 54.3284 14 53.5 14H50.1639C49.3355 14 48.6639 14.6716 48.6639 15.5V30.3663C48.6639 30.5322 48.5294 30.6667 48.3635 30.6667C48.2679 30.6667 48.1779 30.6211 48.1213 30.5439L36.4412 14.6131C36.1586 14.2277 35.7094 14 35.2315 14H31.6082C30.7797 14 30.1082 14.6716 30.1082 15.5V30.0841C30.1082 30.4589 29.9679 30.82 29.715 31.0965L22.9603 38.4812C22.9008 38.5463 22.8167 38.5833 22.7285 38.5833C22.555 38.5833 22.4143 38.4427 22.4143 38.2692Z" fill="#030303" stroke="#030303" stroke-width="0.1"/>
</svg>
